North Indian Girl Sucking while She was on a college Trip 1st April2012{www.mastitoorrents.com}-=MTR=-

File Info..................


Format                           : MPEG-4
Format profile                   : Base Media
Codec ID                         : isom
File size                        : 5.63 MiB
Duration                         : 2mn 52s
Overall bit rate                 : 274 Kbps

Video
ID                               : 1
Format                           : MPEG-4 Visual
Format profile                   : Simple@L3
Format settings, BVOP            : No
Format settings, QPel            : No
Format settings, GMC             : No warppoints
Format settings, Matrix          : Default (H.263)
Codec ID                         : 20
Duration                         : 2mn 52s
Bit rate mode                    : Variable
Bit rate                         : 201 Kbps
Width                            : 310 pixels
Height                           : 212 pixels
Display aspect ratio             : 3:2
Frame rate mode                  : Constant
Frame rate                       : 15.000 fps
Color space                      : YUV
Chroma subsampling               : 4:2:0
Bit depth                        : 8 bits
Scan type                        : Progressive
Compression mode                 : Lossy
Bits/(Pixel*Frame)               : 0.204
Stream size                      : 4.13 MiB (73%)

Audio
ID                               : 2
Format                           : AAC
Format/Info                      : Advanced Audio Codec
Format profile                   : LC
Codec ID                         : 40
Duration                         : 2mn 51s
Bit rate mode                    : Variable
Bit rate                         : 69.4 Kbps
Channel(s)                       : 2 channels
Channel positions                : Front: L R
Sampling rate                    : 44.1 KHz
Compression mode                 : Lossy
Stream size                      : 1.42 MiB (25%)

Screens...........
 
http://picturestack.com/337/509/mnGTripgirlFrX.jpg